#format: frame checksums
#version: 2
#hash: MD5
#tb 0: 1001/30000
#media_type 0: video
#codec_id 0: rawvideo
#dimensions 0: 16x16
#sar 0: 1/1
#stream#, dts,        pts, duration,     size, hash
0,          0,          0,        1,      384, b5c9daafa548e54a8e33e9881fda33f4
0,          1,          1,        1,      384, 1193acd7ea4b7aac968e35ef83c64378
0,          2,          2,        1,      384, cd0e42c0b5a8b3be6f0e1d224062bf99
0,          3,          3,        1,      384, ed79c71d17f68f86cbfa75ea2bfe97f3
0,          4,          4,        1,      384, 1502a859c7e07b31faad5b80e3e27cf7
0,          5,          5,        1,      384, df3f093da914ea947db93c3baa188ecb
0,          6,          6,        1,      384, 480f86eb183b99277c1b38fdaafe2970
0,          7,          7,        1,      384, 023e0114282e04963f0f52e00e65ac61
0,          8,          8,        1,      384, e67f29cf0acc7f9b553458e1e5c59ebf
0,          9,          9,        1,      384, a779a14ba718f0c1df8a7edc9467d12e
